# xmcd
#
# Track frame offsets: 
#        150
#        12651
#        26067
#        44269
#        58010
#        71189
#        87921
#        104881
#        119972
#        135840
#        154930
#        168410
#
# Disc length: 2407 seconds
#
# Revision: 0
# Processed by: cddbd v1.5.2PL0 Copyright (c) Steve Scherf et al.
# Submitted via: ExactAudioCopyFreeDBPlugin 1.0
#
DISCID=b109650c
DTITLE=張偉文 - 君心
DYEAR=2013
DGENRE=Vocal
TTITLE0=小城故事
TTITLE1=我怎能離開你
TTITLE2=情人的關懷
TTITLE3=假如我是真的
TTITLE4=又見炊煙
TTITLE5=在水一方
TTITLE6=月亮代表我的心
TTITLE7=難忘初戀的情人
TTITLE8=甜蜜蜜
TTITLE9=我只在乎你
TTITLE10=海韻
TTITLE11=黃昏裡
EXTD=
EXTT0=
EXTT1=
EXTT2=
EXTT3=
EXTT4=
EXTT5=
EXTT6=
EXTT7=
EXTT8=
EXTT9=
EXTT10=
EXTT11=
PLAYORDER=
